<svg height="200" viewBox="0 0 1024 1024" width="200" xmlns="http://www.w3.org/2000/svg"><path d="m419.037 287.953h413.124c17.673 0 32-14.327 32-32s-14.327-32-32-32h-413.124c-17.673 0-32 14.327-32 32s14.327 32 32 32zm-.009 255.217h411.608c17.673 0 32-14.327 32-32s-14.327-32-32-32h-411.608c-17.673 0-32 14.327-32 32s14.327 32 32 32zm413.133 192.632h-413.124c-17.673 0-32 14.327-32 32s14.327 32 32 32h413.124c17.673 0 32-14.327 32-32s-14.327-32-32-32zm-640.124-479.849a64 64 0 1 0 128 0 64 64 0 1 0 -128 0zm0 254.834a64 64 0 1 0 128 0 64 64 0 1 0 -128 0zm0 256.834a64 64 0 1 0 128 0 64 64 0 1 0 -128 0z" fill="#d2d2d2"/></svg>